<?xml version="1.0" standalone="no"?>
<!DOCTYPE svg PUBLIC "-//W3C//DTD SVG 20010904//EN"
 "http://www.w3.org/TR/2001/REC-SVG-20010904/DTD/svg10.dtd">
<svg version="1.0" xmlns="http://www.w3.org/2000/svg"
 width="700.000000pt" height="700.000000pt" viewBox="0 0 700.000000 700.000000"
 preserveAspectRatio="xMidYMid meet">
<metadata>
Created by potrace 1.11, written by Peter Selinger 2001-2013
</metadata>
<g transform="translate(0.000000,700.000000) scale(0.100000,-0.100000)"
fill="#000000" stroke="none">
<path d="M3750 6984 c-151 -21 -164 -24 -278 -63 -338 -116 -545 -366 -607
-731 -22 -128 -26 -173 -26 -315 0 -166 6 -251 31 -415 15 -105 20 -131 41
-215 87 -350 253 -635 474 -811 126 -101 254 -161 430 -200 49 -11 287 -14
330 -4 22 4 54 11 70 13 92 16 226 74 331 143 55 37 190 162 245 229 85 104
182 288 242 460 49 144 78 271 103 455 18 137 24 415 11 540 -46 467 -282 763
-699 874 -51 13 -112 28 -136 31 -23 4 -54 9 -70 11 -69 11 -404 10 -492 -2z"/>
<path d="M3535 4180 c-86 -79 -243 -203 -278 -218 -23 -11 -126 -58 -229 -105
-192 -88 -189 -87 -368 -102 -30 -3 -82 -7 -115 -10 -148 -12 -184 -15 -250
-20 -73 -5 -159 -12 -235 -20 -25 -2 -79 -7 -120 -10 -41 -3 -95 -8 -120 -10
-25 -3 -79 -7 -120 -10 -111 -9 -178 -14 -240 -20 -70 -6 -155 -13 -250 -20
-41 -3 -95 -8 -120 -10 -25 -2 -79 -7 -120 -10 -41 -3 -95 -8 -120 -10 -25 -2
-79 -6 -120 -10 -155 -13 -177 -21 -206 -76 -19 -37 -13 -83 19 -137 127 -219
427 -801 427 -829 0 -6 -32 -43 -70 -82 -356 -362 -427 -819 -172 -1106 111
-125 315 -184 480 -140 68 19 106 36 171 81 l36 24 17 -72 c10 -39 25 -110 34
-157 9 -47 18 -95 20 -106 38 -179 59 -552 41 -715 -20 -184 -20 -196 -2 -224
34 -51 62 -58 218 -51 78 3 198 7 267 10 69 3 181 7 250 10 69 2 188 7 265 10
264 10 410 15 510 20 55 2 179 7 275 10 96 4 213 8 260 11 47 2 164 6 260 9
96 3 209 8 250 10 41 2 156 7 255 10 99 3 223 8 275 10 52 3 165 7 250 10 277
10 323 14 357 32 50 27 58 59 55 220 l-3 142 53 0 c145 -1 258 43 368 141 19
17 66 59 104 93 38 34 78 70 90 80 12 10 39 35 61 55 22 20 60 55 85 76 129
113 233 208 301 275 145 145 185 293 135 501 -92 389 -225 754 -398 1090 -142
277 -264 451 -437 619 -120 118 -221 186 -406 276 -93 46 -253 123 -355 173
-162 78 -197 100 -284 173 -54 46 -111 94 -125 106 l-27 21 -166 -164 c-163
-161 -167 -164 -210 -164 -24 -1 -68 -3 -98 -6 l-56 -6 -172 171 c-95 94 -173
171 -175 170 -1 0 -11 -9 -22 -19z m710 -578 c10 -26 24 -60 31 -77 46 -103
187 -485 267 -725 59 -175 153 -477 173 -555 8 -33 8 -34 16 -55 4 -8 11 -35
17 -60 124 -493 166 -676 194 -843 2 -15 -4 -56 -13 -91 -14 -48 -17 -93 -16
-182 3 -135 17 -189 72 -279 39 -65 41 -72 48 -247 l5 -118 -27 -1 c-15 0 -45
-2 -67 -4 -22 -1 -132 -5 -245 -9 -113 -4 -236 -9 -275 -11 -38 -2 -149 -6
-245 -10 -96 -3 -213 -8 -260 -10 -79 -4 -220 -9 -520 -20 -69 -2 -188 -7
-265 -10 -301 -13 -346 -14 -510 -20 -93 -4 -208 -8 -255 -10 -146 -7 -462
-18 -535 -19 -69 -1 -70 -1 -68 24 4 43 3 373 -1 405 -2 17 -7 62 -11 100 -9
89 -32 254 -44 308 -5 23 -12 60 -16 82 -3 22 -21 103 -39 179 l-34 140 55 60
c118 131 168 254 168 416 l0 105 45 1 c76 1 154 11 180 24 40 18 64 59 63 105
-1 32 -96 294 -152 420 -5 11 -46 115 -91 230 -114 292 -118 301 -145 313 -22
10 -119 7 -137 -4 -17 -11 -5 -52 78 -262 257 -650 250 -629 213 -654 -29 -18
-119 -32 -119 -18 0 16 -69 88 -103 109 -77 46 -211 68 -320 51 l-46 -7 -42
96 c-89 206 -252 541 -363 745 -42 77 -76 143 -76 148 0 4 17 8 38 9 20 1 48
2 62 4 23 2 128 11 240 20 148 12 218 18 245 20 17 2 71 6 120 10 50 3 106 8
125 10 19 2 69 7 110 10 41 3 95 7 120 10 25 2 79 7 120 10 41 3 98 8 125 10
28 2 84 7 125 10 41 3 91 8 110 10 19 2 76 7 125 10 50 3 106 8 125 10 19 3
69 7 110 10 87 6 200 15 250 20 19 2 73 6 120 10 47 3 101 8 120 10 19 2 73 7
120 10 47 3 101 8 120 10 19 2 73 7 120 10 47 4 101 8 120 10 19 2 77 6 129
10 51 4 101 8 110 10 9 1 61 6 116 10 55 4 101 7 102 8 1 1 17 3 36 4 33 2 36
-1 52 -45z m1067 -1500 c53 -131 118 -315 118 -333 0 -6 -10 -20 -22 -31 -13
-11 -57 -50 -98 -87 -41 -38 -90 -81 -109 -96 l-33 -29 6 60 c6 58 11 93 20
164 3 19 8 60 11 90 6 54 8 66 19 145 4 22 9 63 11 90 3 28 7 59 9 70 3 11 5
32 5 48 1 15 4 27 9 27 4 0 28 -53 54 -118z"/>
<path d="M3505 3310 c-17 -5 -49 -25 -71 -44 -65 -55 -78 -130 -39 -221 7 -16
23 -57 36 -90 60 -159 167 -237 345 -254 104 -9 127 -21 154 -79 63 -133 75
-196 41 -216 -50 -31 -131 0 -163 63 -27 54 -42 64 -95 64 -102 0 -115 -19
-70 -106 61 -117 189 -191 329 -189 87 1 161 39 192 99 27 53 25 92 -10 189
-64 182 -111 241 -231 295 -57 27 -101 35 -205 38 -48 2 -82 43 -121 145 -30
77 -35 100 -27 121 26 69 140 43 180 -41 25 -53 41 -62 108 -58 69 3 82 9 82
34 0 67 -96 179 -194 225 -63 30 -186 42 -241 25z"/>
<path d="M2897 3264 c-1 -1 -47 -5 -102 -9 -141 -10 -155 -14 -155 -40 0 -12
84 -239 115 -310 7 -16 41 -102 75 -190 34 -88 68 -173 75 -190 7 -16 40 -101
75 -188 66 -166 77 -181 132 -172 13 2 64 6 113 9 234 16 261 23 295 78 11 18
17 43 14 61 -3 29 -54 170 -94 262 -10 22 -25 61 -35 87 -12 34 -26 51 -46 60
-30 14 -36 23 -19 33 6 3 10 16 10 28 0 36 -131 359 -162 399 -17 21 -52 48
-84 63 -47 22 -67 26 -130 23 -41 -1 -76 -3 -77 -4z m124 -164 c31 -13 75 -99
122 -242 12 -34 -23 -57 -94 -62 l-66 -4 -60 151 c-48 124 -56 153 -44 158 28
11 114 10 142 -1z m197 -471 c32 -20 117 -236 104 -264 -11 -23 -52 -35 -122
-35 -35 0 -35 1 -69 88 -33 87 -50 128 -76 189 l-14 32 42 3 c70 5 112 1 135
-13z"/>
<path d="M2155 3200 c-82 -21 -139 -72 -151 -135 -10 -55 0 -90 118 -389 143
-365 157 -395 207 -443 91 -91 257 -134 362 -95 35 14 87 59 103 91 30 61 22
98 -74 343 -50 128 -95 242 -100 253 -5 11 -20 50 -34 86 -13 36 -33 83 -44
105 -23 43 -84 114 -100 114 -5 0 -15 7 -22 15 -32 39 -196 73 -265 55z m170
-168 c31 -19 49 -48 85 -142 11 -30 25 -64 30 -75 44 -101 180 -465 180 -481
0 -68 -129 -70 -172 -2 -8 13 -40 91 -72 173 -32 83 -64 164 -71 180 -55 131
-115 294 -115 312 0 49 79 69 135 35z"/>
<path d="M3948 1845 c-2 -2 -59 -6 -128 -9 -69 -4 -141 -9 -160 -11 -19 -2
-87 -7 -150 -10 -63 -3 -140 -8 -170 -10 -30 -3 -98 -7 -150 -10 -52 -3 -129
-8 -170 -10 -164 -11 -219 -15 -315 -20 -55 -3 -122 -8 -150 -10 -27 -2 -104
-7 -170 -10 -81 -5 -133 -13 -161 -25 -125 -54 -139 -230 -24 -306 54 -36 77
-36 605 1 39 2 117 7 175 11 58 3 130 7 160 9 30 2 102 7 160 10 58 3 128 7
155 10 28 2 100 7 160 11 299 16 409 25 445 36 72 22 120 90 120 170 0 93 -72
165 -172 172 -31 2 -58 3 -60 1z"/>
<path d="M3967 1114 c-1 -1 -51 -5 -112 -8 -60 -4 -137 -9 -170 -11 -33 -3
-105 -7 -160 -10 -55 -4 -127 -8 -160 -10 -33 -2 -112 -7 -175 -10 -63 -4
-131 -8 -150 -10 -19 -2 -91 -6 -160 -10 -69 -3 -143 -8 -165 -9 -22 -2 -89
-7 -150 -10 -221 -13 -256 -22 -298 -77 -32 -43 -42 -74 -39 -124 4 -59 43
-119 97 -145 42 -20 54 -21 183 -15 75 4 153 8 172 10 19 2 85 6 145 10 61 3
137 8 170 10 33 2 101 7 150 10 149 9 257 16 315 20 30 2 105 7 165 10 61 3
135 8 165 10 30 3 98 7 150 10 234 13 254 18 308 79 79 90 36 238 -80 275 -28
9 -191 13 -201 5z"/>
</g>
</svg>
